<svg width="161" height="46" viewBox="0 0 161 46" fill="none" xmlns="http://www.w3.org/2000/svg">
<g filter="url(#filter0_d_15_397)">
<path d="M39.8117 9.64511L36.7122 9.80602C34.5341 9.91771 32.7622 11.7616 32.7622 13.916V23.567C32.7622 24.6423 33.1913 25.6381 33.9709 26.3688C34.7008 27.0523 35.6471 27.4233 36.6547 27.4233C36.7256 27.4233 36.7984 27.4214 36.8693 27.4176L38.419 27.3381C41.4514 27.181 43.9187 24.6139 43.9187 21.6171V13.4938C43.9187 12.4166 43.4896 11.4208 42.7119 10.6901C41.9342 9.95936 40.9055 9.58642 39.8117 9.64511ZM40.8787 21.6133C40.8787 23.037 39.7063 24.2561 38.2638 24.3319L36.7141 24.4114C36.4708 24.4246 36.239 24.3432 36.0685 24.1842C35.9 24.0271 35.808 23.8056 35.808 23.5633V13.9141C35.808 13.3537 36.3061 12.8369 36.8731 12.8085L39.9707 12.6476C39.9879 12.6476 40.0051 12.6457 40.0224 12.6457C40.2522 12.6457 40.461 12.7252 40.6181 12.871C40.7848 13.0281 40.8767 13.2477 40.8767 13.4938V21.6133H40.8787Z" fill="white"/>
<path d="M56.9392 8.00765C56.9392 7.17657 56.2572 6.50452 55.4182 6.50452C54.5772 6.50452 53.8972 7.17846 53.8972 8.00765V21.0266C53.8493 22.4123 52.698 23.5823 51.2862 23.6561L49.0756 23.7697C48.8323 23.781 48.6005 23.7015 48.43 23.5425C48.2615 23.3854 48.1695 23.1639 48.1695 22.9216V10.7962C48.1695 9.96512 47.4875 9.29307 46.6485 9.29307C45.8095 9.29307 45.1275 9.96701 45.1275 10.7962V22.9253C45.1275 24.0006 45.5566 24.9964 46.3363 25.7272C47.0661 26.4106 48.0124 26.7816 49.02 26.7816C49.0909 26.7816 49.1637 26.7797 49.2346 26.7759L51.4452 26.6623C52.3264 26.6169 53.1578 26.367 53.8972 25.9638V29.9923C53.8972 30.8234 54.5792 31.4955 55.4182 31.4955C56.2592 31.4955 56.9392 30.8215 56.9392 29.9923V21.1193C56.9411 21.0606 56.943 21.002 56.943 20.9414V12.1119C56.943 12.0816 56.9411 12.0532 56.9392 12.0229V8.00765V8.00765Z" fill="white"/>
<path d="M11.8991 9.64511L8.79968 9.80602C6.62162 9.91771 4.84967 11.7616 4.84967 13.916V23.567C4.84967 24.6423 5.27877 25.6381 6.05843 26.3688C6.78828 27.0523 7.73459 27.4233 8.74221 27.4233C8.81309 27.4233 8.88588 27.4214 8.95676 27.4176L10.5065 27.3381C13.5389 27.181 16.0062 24.6139 16.0062 21.6171V13.4938C16.0062 12.4166 15.5771 11.4208 14.7994 10.6901C14.0197 9.95936 12.993 9.58642 11.8991 9.64511ZM12.9642 21.6133C12.9642 23.037 11.7919 24.2561 10.3494 24.3319L8.79968 24.4114C8.55639 24.4246 8.3246 24.3432 8.15411 24.1842C7.98554 24.0271 7.89359 23.8056 7.89359 23.5633V13.9141C7.89359 13.3537 8.39165 12.8369 8.95867 12.8085L12.0581 12.6476C12.0754 12.6476 12.0926 12.6457 12.1099 12.6457C12.3397 12.6457 12.5485 12.7252 12.7056 12.871C12.8723 13.0281 12.9642 13.2477 12.9642 13.4938V21.6133V21.6133Z" fill="white"/>
<path d="M29.0265 8.00765C29.0265 7.17657 28.3446 6.50452 27.5055 6.50452C26.6665 6.50452 25.9845 7.17846 25.9845 8.00765V21.0303C25.9347 22.4142 24.7853 23.5842 23.3735 23.6561L21.1629 23.7697C20.9196 23.781 20.6878 23.7015 20.5173 23.5425C20.3488 23.3854 20.2568 23.1639 20.2568 22.9216V10.7962C20.2568 9.96512 19.5749 9.29307 18.7358 9.29307C17.8949 9.29307 17.2148 9.96701 17.2148 10.7962V22.9253C17.2148 24.0006 17.6439 24.9964 18.4236 25.7272C19.1534 26.4106 20.0997 26.7816 21.1074 26.7816C21.1782 26.7816 21.251 26.7797 21.3219 26.7759L23.5325 26.6623C24.4137 26.6169 25.2451 26.367 25.9845 25.9638V29.9923C25.9845 30.8234 26.6665 31.4955 27.5055 31.4955C28.3446 31.4955 29.0265 30.8215 29.0265 29.9923V21.1269C29.0284 21.0663 29.0304 21.0038 29.0304 20.9433V12.1119C29.0304 12.0816 29.0284 12.0494 29.0265 12.0191V8.00765Z" fill="white"/>
<line opacity="0.2" x1="71.943" y1="4.37114e-08" x2="71.943" y2="38" stroke="white" stroke-width="2"/>
<path d="M88.2243 12.2812C87.2868 12.2188 86.7868 11.6562 86.7243 10.5938C86.7868 9.65625 87.2868 9.15625 88.2243 9.09375H105.381C106.381 9.21875 106.912 9.71875 106.974 10.5938C106.849 11.5938 106.318 12.1562 105.381 12.2812H98.6305V25.2188H106.599C107.599 25.2812 108.131 25.8125 108.193 26.8125C108.131 27.8125 107.599 28.3438 106.599 28.4062H87.0055C86.068 28.2812 85.5368 27.75 85.4118 26.8125C85.4743 25.8125 86.0055 25.2812 87.0055 25.2188H95.1618V12.2812H88.2243ZM116.724 18C116.037 17.375 115.943 16.5938 116.443 15.6562C117.693 13.9062 118.818 11.5312 119.818 8.53125C120.318 7.59375 121.006 7.1875 121.881 7.3125C122.818 7.625 123.193 8.25 123.006 9.1875C122.881 9.375 122.756 9.6875 122.631 10.125C122.568 10.3125 122.506 10.4688 122.443 10.5938H131.068C132.006 10.6562 132.506 11.1562 132.568 12.0938C132.443 13.0312 131.943 13.5312 131.068 13.5938H124.881V16.5H129.849C130.724 16.5625 131.193 17.0312 131.256 17.9062C131.193 18.8438 130.724 19.3438 129.849 19.4062H124.881V22.4062H130.599C131.474 22.4688 131.943 22.9062 132.006 23.7188C131.943 24.6562 131.474 25.1562 130.599 25.2188H124.881V28.5938C124.756 29.5938 124.256 30.125 123.381 30.1875C122.443 30.0625 121.912 29.5312 121.787 28.5938V13.5938H121.318H121.131C120.506 14.9062 119.818 16.125 119.068 17.25C118.443 18.25 117.662 18.5 116.724 18ZM109.881 20.0625C109.506 19.8125 109.318 19.4062 109.318 18.8438C109.318 18.3438 109.412 17.9062 109.599 17.5312C111.412 14.4688 112.787 11.4375 113.724 8.4375C114.037 7.5625 114.693 7.1875 115.693 7.3125C116.631 7.625 117.006 8.28125 116.818 9.28125C116.443 10.4062 116.006 11.5312 115.506 12.6562V28.6875C115.443 29.625 114.943 30.125 114.006 30.1875C113.006 30.0625 112.474 29.5625 112.412 28.6875V18.5625C112.349 18.625 112.256 18.7812 112.131 19.0312C112.006 19.2188 111.912 19.375 111.849 19.5C111.287 20.1875 110.631 20.375 109.881 20.0625ZM138.006 29.0625C136.693 29.0625 136.037 28.4062 136.037 27.0938V20.9062C136.037 19.5938 136.693 18.9688 138.006 19.0312H151.787C153.037 19.0938 153.693 19.7188 153.756 20.9062V27.0938C153.693 28.3438 153.037 29 151.787 29.0625H138.006ZM137.349 17.1562C136.037 17.1562 135.224 16.7812 134.912 16.0312C134.662 15.0312 134.974 14.1562 135.849 13.4062C137.787 12.0312 139.787 10.2188 141.849 7.96875C142.912 6.96875 143.849 6.84375 144.662 7.59375C145.412 8.34375 145.381 9.09375 144.568 9.84375C143.381 10.9062 141.849 12.2188 139.974 13.7812C139.849 13.9062 139.787 14.0312 139.787 14.1562C139.849 14.2188 139.974 14.25 140.162 14.25C143.287 14.25 146.443 14.1562 149.631 13.9688C149.068 13.2812 148.474 12.6562 147.849 12.0938C147.412 11.3438 147.506 10.6875 148.131 10.125C148.818 9.6875 149.506 9.78125 150.193 10.4062C151.381 11.5312 153.131 13.25 155.443 15.5625C156.006 16.3125 155.974 17.0312 155.349 17.7188C154.474 18.2812 153.662 18.1875 152.912 17.4375C152.724 17.25 152.506 17 152.256 16.6875C149.506 16.875 145.193 17.0312 139.318 17.1562C138.443 17.1562 137.787 17.1562 137.349 17.1562ZM150.568 25.4062V22.5938C150.506 22.1562 150.256 21.9062 149.818 21.8438H139.974C139.474 21.8438 139.224 22.0938 139.224 22.5938V25.4062C139.224 25.9688 139.474 26.25 139.974 26.25H149.818C150.318 26.25 150.568 25.9688 150.568 25.4062Z" fill="white"/>
</g>
<defs>
<filter id="filter0_d_15_397" x="0.84967" y="0" width="160.093" height="46" filterUnits="userSpaceOnUse" color-interpolation-filters="sRGB">
<feFlood flood-opacity="0" result="BackgroundImageFix"/>
<feColorMatrix in="SourceAlpha" type="matrix" values="0 0 0 0 0 0 0 0 0 0 0 0 0 0 0 0 0 0 127 0" result="hardAlpha"/>
<feOffset dy="4"/>
<feGaussianBlur stdDeviation="2"/>
<feComposite in2="hardAlpha" operator="out"/>
<feColorMatrix type="matrix" values="0 0 0 0 0 0 0 0 0 0 0 0 0 0 0 0 0 0 0.25 0"/>
<feBlend mode="normal" in2="BackgroundImageFix" result="effect1_dropShadow_15_397"/>
<feBlend mode="normal" in="SourceGraphic" in2="effect1_dropShadow_15_397" result="shape"/>
</filter>
</defs>
</svg>
