<svg xmlns="http://www.w3.org/2000/svg" viewBox="0 0 202.98 202.98"><defs><style>.cls-1{fill:#0090ff;}.cls-2{fill:#fff;}</style></defs><g><g><circle class="cls-1" cx="101.03" cy="103.71" r="75.68"/><path class="cls-2" d="M78.44,97.1a31,31,0,0,0-1.24,8.05c-5.41,1-12.57,0-22-2.46a10.71,10.71,0,0,1-.41,1.57,31.65,31.65,0,0,0-1.44,8.23c13.55,1.78,36.46,5.72,42.57,10.7,3.75-2.72,18.2-5.72,29.89-7.53a208.32,208.32,0,0,1,21.51-2.32c-.13-3.24-.66-7.58-2.16-10.65-6.49,1.19-15.35,1.91-32.14,3.58a36.39,36.39,0,0,0-.42-8.54c6.34-1.19,25.25-5,32.82-9.09a79.7,79.7,0,0,0-2.78-15.42c-2.63-9.13-6.8-17.12-9.91-19l-2.55-1.53,2.18-2c1.37-1.27,1.62-3.66.81-4.59-1.11-1.28-2.89-1.94-8.72-1.54l-2.63.18.25-2.62a4.6,4.6,0,0,0-.85-3.66,1.66,1.66,0,0,0-1.22-.61c-2.23,0-3.72,2-4.41,5.92l-.37,2.06-2.08-.23a87.39,87.39,0,0,0-9.64-.55,57.51,57.51,0,0,0-23.41,4.47A38.79,38.79,0,0,0,61.53,66.28C57.09,74.21,55.6,83,55.17,89.91,62.44,93.21,70.77,95.23,78.44,97.1Zm32.32-35.81c.28-.38,2.24-2.17,3.57-2.1s3.14,1.42,4.58,4c.23.41-.28.84-.74.28s-2.46-2.6-3.91-2.58c-1.16,0-2.91,1.25-3.29,1.08S110.76,61.29,110.76,61.29Zm3.17,12.91c3,0,3.88,2.94,3.93,6.26,0,1.83-.42,5.5-3.88,5.56s-4.15-4.62-4.15-5.88C109.83,78.25,109.83,74.2,113.93,74.2Zm-8.12,21.54c2.78.05,5.3,1.34,5.86,6.61s-2.19,7.42-4.41,7.76-5.84-.93-6.23-2a37.64,37.64,0,0,0-.38-8.3C102.61,95.61,105.81,95.74,105.81,95.74ZM92.42,78.36c1.26-1.52,3.35-1,4.19-.84a23.86,23.86,0,0,1,4.44,1.73c.76.63,1,3.51.34,3.78s-5.93.89-8,0S91.16,79.88,92.42,78.36ZM91.31,99.55c.91-.7,7.7-.14,8,.63s.36,6.64-.28,7.48-7.77.63-8.18-.34S90.72,100,91.31,99.55Zm-1.78.11a38.11,38.11,0,0,0-.63,8.28c-.41,1.09-3.57,2.21-5.77,1.8s-4.72-2.42-4-7.67,2.59-6.64,5.38-6.61C84.5,95.46,87.7,95.43,89.53,99.66Zm-10.39-38a3.78,3.78,0,0,1,3.4-2.63c1.57,0,2.89.84,2.9,2.31,0,.79-.8.52-1,.07a1.92,1.92,0,0,0-1.92-.91,4.42,4.42,0,0,0-2.84,1.33C79.35,62.45,79,62,79.14,61.68Zm-2,18.08c.1-1.21.2-5.74,3.66-5.56,2.71.14,3.47,2.61,3.05,5.91-.21,1.64.06,4.83-3.4,4.7S77.08,81,77.19,79.76Z"/><path class="cls-2" d="M95.37,132.78c2.84.13,15.53-1.75,33.93-5,15.28-2.73,27.87-5.24,30.2-5.91-.18-1.19-1.19-5-3.61-6.52-2.15-1.38-14.73-.68-29.9,1.66-15.43,2.39-27.61,5.5-29.62,7.56l-.47.49-.48-.47c-2.59-2.52-11.26-5.31-24.4-7.87a269.23,269.23,0,0,0-26.7-3.86,7.55,7.55,0,0,0-4.81,5c1.45.9,10.63,3.88,26.13,8.07C80.2,129.81,92.42,132.65,95.37,132.78Z"/><path class="cls-2" d="M101.49,0A101.49,101.49,0,1,0,203,101.49,101.49,101.49,0,0,0,101.49,0Zm67.12,123.47c-2.94,9.19-6.58,8.12-8.54,7.63h-.3c-.72,9-2.76,18.75-7.11,25.17-18.47,7-38.79,8.16-47.22,8.26-4.79,2.62-11.19,2.37-15.91.13-6.12.28-35.36-3.08-40.53-7-3.78-5.67-10.9-29.22-10.26-38.79-.44-.28-.6-.54-.6-.86,0-1.85,2.25-5.24,5.56-6.4.93-4.93,2.22-9.67,4-12.85-1.92-2.93-2.64-9.38,3-10.07.53-7.23,2.21-16.3,6.86-24.61A43.12,43.12,0,0,1,78.26,45.43c9.3-4.13,20.52-5.64,33.36-4.48a11.76,11.76,0,0,1,3.1-5.55,7.62,7.62,0,0,1,5.26-2,6.17,6.17,0,0,1,4.53,2.07,8.13,8.13,0,0,1,2,4.53c4.55-.12,7.75.53,10.06,3.19A7,7,0,0,1,138,48.93a8.9,8.9,0,0,1-1,3c4.28,4.18,8,13,10,20.06a88.58,88.58,0,0,1,2.75,14.4A7.88,7.88,0,0,1,151.61,90c.21,1.68-.21,8.67,4.76,11.54S173,109.77,168.61,123.47Z"/></g></g></svg>
