<svg width="105" height="44" viewBox="0 0 105 44" fill="none" xmlns="http://www.w3.org/2000/svg">
<path d="M34.0729 25.9974C33.9682 25.9683 33.6738 25.9083 32.9764 25.9083C31.4513 25.9083 28.9482 26.1912 26.5993 26.6293C24.0626 27.1022 22.1127 27.6779 21.3837 28.1663L21.2454 28.2594C21.119 28.3446 20.953 28.3485 20.8207 28.271L20.6784 28.1857C18.8886 27.1216 12.7722 25.9354 9.97672 25.9354C9.47492 25.9354 9.2339 25.9761 9.13117 26.0013C9.12919 26.0013 9.12919 26.0013 9.12919 26.0032C8.95534 26.2397 8.69061 26.8968 8.578 27.296C8.578 27.298 8.57998 27.3019 8.58195 27.3019C11.6184 27.1507 18.5725 28.6528 19.258 28.9746C20.0008 29.3234 21.4588 29.6316 22.6738 28.9339C23.7821 28.2981 31.6963 27.1429 34.632 27.3212C34.634 27.3212 34.6379 27.3193 34.6359 27.3154C34.5154 26.9278 34.2369 26.2261 34.0749 26.0013C34.0749 25.9974 34.0749 25.9974 34.0729 25.9974Z" fill="white"/>
<path d="M21.0164 27.4473C21.0183 27.4473 21.0203 27.4473 21.0203 27.4473C22.7213 26.3076 29.0451 25.2067 32.4175 25.0904C32.4194 25.0904 32.4214 25.0885 32.4214 25.0866C32.372 24.4624 32.2416 23.472 32.0421 22.6482C32.0421 22.6463 32.0401 22.6444 32.0381 22.6444C30.2581 22.9758 27.3363 23.3828 24.9577 23.3635C24.9557 23.3635 24.9537 23.3615 24.9537 23.3576C25.1829 22.3265 24.8055 21.5338 24.7739 21.4679C24.772 21.4659 24.7739 21.462 24.7779 21.462C26.1687 21.2043 29.7109 20.5511 31.7537 19.7215C31.7556 19.7215 31.7556 19.7196 31.7556 19.7176C31.7556 18.9598 31.6865 18.0488 31.5561 17.194L31.5541 17.1843L31.5521 17.1747C31.3131 15.3391 30.5426 13.6199 29.3217 12.2011L28.816 11.6138C28.814 11.6119 28.814 11.61 28.816 11.608L29.377 11.0711C29.5272 10.9258 29.8156 10.6118 29.4837 10.1408C29.302 9.88299 28.893 9.72212 28.2134 9.90431C28.0593 9.94502 27.6089 10.0477 27.5575 10.0594C27.5555 10.0594 27.5536 10.0574 27.5536 10.0555L27.6227 8.94295C27.6227 8.92938 27.6247 8.91581 27.6247 8.90224C27.6267 8.8848 27.6267 8.86348 27.6267 8.85573C27.6267 8.04166 26.9332 7.38266 26.0956 7.41561C25.4713 7.44081 24.9399 7.86529 24.7482 8.4487L24.529 9.11739C24.529 9.11933 24.527 9.12127 24.525 9.11933L23.7881 8.97202C23.146 8.8441 22.4862 8.78013 21.8283 8.78013C20.6667 8.78013 19.5307 8.97784 18.4501 9.36548C17.407 9.7415 16.4409 10.2861 15.5815 10.9839C13.8529 12.3872 12.6577 14.3409 12.2152 16.4866L12.2132 16.4982L12.2112 16.5098C11.9109 17.7736 11.8418 18.9578 11.8437 19.832C11.8437 19.8339 11.8437 19.8359 11.8457 19.8359C13.4025 20.5491 15.058 21.0938 16.7234 21.4931C16.7254 21.4931 16.7274 21.4969 16.7254 21.4989C16.6898 21.5531 16.3639 22.0939 16.5219 23.3712C16.5219 23.3732 16.5199 23.3751 16.518 23.3751C15.1252 23.3421 13.0034 22.9564 11.5711 22.5106C11.5691 22.5106 11.5672 22.5106 11.5652 22.5126C11.4368 22.9836 11.3064 23.7608 11.2886 25.1563C11.2886 25.1583 11.2906 25.1602 11.2926 25.1602C14.3942 25.4238 19.3154 26.4375 21.0164 27.4473ZM25.0722 18.2988C24.5546 18.2988 24.1338 17.7232 24.1338 17.0118C24.1338 16.3005 24.5546 15.7249 25.0722 15.7249C25.5898 15.7249 26.0106 16.3005 26.0106 17.0118C26.0087 17.7232 25.5898 18.2988 25.0722 18.2988ZM24.1082 12.6334C24.124 12.6159 24.5013 12.1837 25.0505 12.1682C25.3982 12.1585 25.7262 12.3135 26.0284 12.6275C26.0897 12.6915 26.0877 12.7923 26.0225 12.8524C25.9909 12.8815 25.9514 12.895 25.9099 12.895C25.8664 12.895 25.823 12.8776 25.7914 12.8446C25.5563 12.6004 25.3093 12.4783 25.0604 12.4861C24.6574 12.4957 24.3571 12.8349 24.3531 12.8388C24.2958 12.9067 24.1931 12.9144 24.124 12.8563C24.0588 12.8 24.0489 12.7012 24.1082 12.6334ZM19.8211 16.8083H21.775C21.8757 16.8083 21.9567 16.8878 21.9567 16.9866V17.8976C21.9567 17.9965 21.8757 18.0759 21.775 18.0759H20.6489C20.4039 18.0759 19.7085 17.9383 19.6374 16.9983C19.6315 16.8956 19.7164 16.8083 19.8211 16.8083ZM18.5983 21.024C18.5983 21.024 19.7678 21.4368 20.0444 22.1094H21.3443C21.6209 21.4368 22.8813 21.024 22.8813 21.024C23.148 20.898 24.3255 20.803 24.4203 22.5823C24.5151 24.3617 23.1223 24.2202 23.1223 24.2202C22.3538 24.1543 21.3819 23.6116 21.3483 23.5437H20.0424C20.0108 23.6116 19.1257 24.1543 18.3592 24.2202C18.3592 24.2202 16.9664 24.3617 17.0613 22.5823C17.1541 20.8011 18.3296 20.898 18.5983 21.024ZM16.0458 12.6334C16.0616 12.6159 16.4389 12.1837 16.9882 12.1682C17.3359 12.1585 17.6638 12.3135 17.9661 12.6275C18.0273 12.6915 18.0253 12.7923 17.9601 12.8524C17.9285 12.8815 17.889 12.895 17.8475 12.895C17.8041 12.895 17.7606 12.8776 17.729 12.8446C17.4939 12.6004 17.247 12.4783 16.998 12.4861C16.595 12.4957 16.2947 12.8349 16.2908 12.8388C16.2335 12.9067 16.1308 12.9144 16.0616 12.8563C15.9964 12.8 15.9865 12.7012 16.0458 12.6334ZM16.0774 17.0118C16.0774 16.3005 16.4982 15.7249 17.0158 15.7249C17.5334 15.7249 17.9542 16.3005 17.9542 17.0118C17.9542 17.7232 17.5334 18.2988 17.0158 18.2988C16.4982 18.2988 16.0774 17.7232 16.0774 17.0118Z" fill="white"/>
<path d="M22.4248 0C10.0399 0 0 9.8482 0 21.999C0 34.1499 10.0399 44 22.4248 44C34.8097 44 44.8497 34.1499 44.8497 21.999C44.8497 9.8482 34.8078 0 22.4248 0ZM37.5242 27.2614C37.0145 28.8255 35.8371 29.3682 35.1021 29.4923C35.1002 29.4923 35.0982 29.4942 35.0982 29.4961C34.7821 31.1921 34.2092 33.1032 33.7429 33.9076L33.741 33.9095C29.5191 35.3613 24.8745 35.8342 22.9464 35.8574H22.9444C21.8499 36.4021 20.388 36.3478 19.3093 35.8846H19.3074C17.9067 35.9427 11.2253 34.7236 10.0399 33.9115C10.0399 33.9115 10.0399 33.9115 10.0379 33.9095C9.14299 32.6904 7.92998 29.5194 7.89047 27.1896C7.95369 26.8369 8.37844 25.5906 8.75183 25.2766C8.77356 25.265 8.79727 25.2533 8.82295 25.2436C8.82492 25.2436 8.82492 25.2417 8.82492 25.2398C9.05211 23.916 9.38401 22.5766 9.88186 21.7238C9.88186 21.7219 9.88186 21.7219 9.88186 21.7199C9.40574 20.9989 9.26745 19.3359 10.9902 19.4425C10.9921 19.4425 10.9941 19.4406 10.9941 19.4386C11.0139 18.5703 11.1067 17.4849 11.3813 16.3297C12.3671 11.5519 16.668 7.95648 21.8243 7.95648C22.5513 7.95648 23.2625 8.02819 23.948 8.16387C23.95 8.16387 23.952 8.16387 23.952 8.16193C24.2522 7.24902 25.1235 6.59002 26.1547 6.59002C27.4329 6.59002 28.4681 7.60566 28.4681 8.8597C28.4681 8.90428 28.4642 8.94886 28.4622 8.9915C28.4622 8.99344 28.4642 8.99731 28.4681 8.99537C28.5886 8.96824 28.7111 8.94886 28.8395 8.94886C29.7325 8.94886 30.4556 9.65825 30.4556 10.5343C30.4556 10.9782 30.2679 11.3775 29.9696 11.6663C29.9676 11.6682 29.9676 11.6701 29.9696 11.6721C31.2577 13.1703 32.1249 15.0291 32.3916 17.072C32.5062 17.8182 32.5754 18.6052 32.5931 19.3184C32.603 19.3126 32.6129 19.3068 32.6208 19.301C33.6382 19.2312 34.0077 19.772 34.0452 20.3767C34.0452 20.3845 34.0492 20.3922 34.0492 20.4019C34.0946 21.3672 33.6165 21.8323 34.7525 22.4758C35.8864 23.1213 38.5258 24.1854 37.5242 27.2614Z" fill="white"/>
<path d="M87.145 12.6451L84.0456 12.806C81.8675 12.9177 80.0956 14.7616 80.0956 16.9159V26.567C80.0956 27.6423 80.5246 28.6381 81.3043 29.3688C82.0342 30.0522 82.9805 30.4233 83.9881 30.4233C84.059 30.4233 84.1318 30.4214 84.2026 30.4176L85.7524 30.3381C88.7848 30.181 91.2521 27.6139 91.2521 24.6171V16.4938C91.2521 15.4166 90.823 14.4208 90.0453 13.6901C89.2675 12.9593 88.2388 12.5864 87.145 12.6451ZM88.212 24.6133C88.212 26.0369 87.0397 27.2561 85.5972 27.3318L84.0475 27.4113C83.8042 27.4246 83.5724 27.3432 83.4019 27.1842C83.2333 27.027 83.1414 26.8055 83.1414 26.5632V16.914C83.1414 16.3537 83.6394 15.8369 84.2065 15.8085L87.304 15.6475C87.3213 15.6475 87.3385 15.6457 87.3557 15.6457C87.5856 15.6457 87.7944 15.7252 87.9515 15.8709C88.1182 16.0281 88.2101 16.2477 88.2101 16.4938V24.6133H88.212Z" fill="white"/>
<path d="M104.273 11.0076C104.273 10.1766 103.591 9.50452 102.752 9.50452C101.911 9.50452 101.231 10.1785 101.231 11.0076V24.0266C101.183 25.4123 100.032 26.5823 98.62 26.6561L96.4093 26.7697C96.166 26.781 95.9343 26.7015 95.7638 26.5425C95.5952 26.3854 95.5032 26.1639 95.5032 25.9216V13.7962C95.5032 12.9651 94.8213 12.2931 93.9822 12.2931C93.1432 12.2931 92.4612 12.967 92.4612 13.7962V25.9254C92.4612 27.0006 92.8903 27.9964 93.67 28.7272C94.3998 29.4106 95.3462 29.7816 96.3538 29.7816C96.4247 29.7816 96.4974 29.7797 96.5683 29.7759L98.779 29.6623C99.6601 29.6169 100.492 29.367 101.231 28.9638V32.9923C101.231 33.8234 101.913 34.4955 102.752 34.4955C103.593 34.4955 104.273 33.8215 104.273 32.9923V24.1193C104.275 24.0606 104.277 24.002 104.277 23.9414V15.1119C104.277 15.0816 104.275 15.0532 104.273 15.0229V11.0076Z" fill="white"/>
<path d="M59.2325 12.6451L56.133 12.806C53.955 12.9177 52.183 14.7616 52.183 16.9159V26.567C52.183 27.6423 52.6121 28.6381 53.3918 29.3688C54.1216 30.0522 55.068 30.4233 56.0756 30.4233C56.1465 30.4233 56.2193 30.4214 56.2901 30.4176L57.8399 30.3381C60.8723 30.181 63.3396 27.6139 63.3396 24.6171V16.4938C63.3396 15.4166 62.9105 14.4208 62.1328 13.6901C61.3531 12.9593 60.3263 12.5864 59.2325 12.6451ZM60.2976 24.6133C60.2976 26.0369 59.1252 27.2561 57.6828 27.3318L56.133 27.4113C55.8898 27.4246 55.658 27.3432 55.4875 27.1842C55.3189 27.027 55.227 26.8055 55.227 26.5632V16.914C55.227 16.3537 55.725 15.8369 56.292 15.8085L59.3915 15.6475C59.4088 15.6475 59.426 15.6457 59.4432 15.6457C59.6731 15.6457 59.8819 15.7252 60.039 15.8709C60.2057 16.0281 60.2976 16.2477 60.2976 16.4938V24.6133Z" fill="white"/>
<path d="M76.3597 11.0076C76.3597 10.1766 75.6777 9.50452 74.8387 9.50452C73.9997 9.50452 73.3177 10.1785 73.3177 11.0076V24.0303C73.2679 25.4142 72.1185 26.5842 70.7067 26.6561L68.4961 26.7697C68.2528 26.781 68.021 26.7015 67.8505 26.5425C67.682 26.3854 67.59 26.1639 67.59 25.9216V13.7962C67.59 12.9651 66.908 12.2931 66.069 12.2931C65.228 12.2931 64.548 12.967 64.548 13.7962V25.9254C64.548 27.0006 64.9771 27.9964 65.7568 28.7272C66.4866 29.4106 67.4329 29.7816 68.4405 29.7816C68.5114 29.7816 68.5842 29.7797 68.6551 29.7759L70.8657 29.6623C71.7469 29.6169 72.5783 29.367 73.3177 28.9638V32.9923C73.3177 33.8234 73.9997 34.4955 74.8387 34.4955C75.6777 34.4955 76.3597 33.8215 76.3597 32.9923V24.1269C76.3616 24.0663 76.3635 24.0038 76.3635 23.9433V15.1119C76.3635 15.0816 76.3616 15.0494 76.3597 15.0191V11.0076Z" fill="white"/>
</svg>
